<svg xmlns="http://www.w3.org/2000/svg" viewBox="0 0 270.71 270.71"><defs><style>.cls-1{fill:#039aee;}.cls-2{fill:#fff;}</style></defs><g id="Layer_2" data-name="Layer 2"><g id="Layer_1-2" data-name="Layer 1"><circle class="cls-1" cx="135.35" cy="135.35" r="135.35"/><path class="cls-2" d="M142,163.27h51.62a3.69,3.69,0,0,0,2.46-6.44l-21-18.81a3.69,3.69,0,0,0-4.93,0l-1.36,1.21a3.69,3.69,0,0,1-5.86-1.29l-16.5-38.57a3.69,3.69,0,0,0-6.79,0l-11,25.56a3.7,3.7,0,0,1-6.68.25h0a3.7,3.7,0,0,0-6.55,0L98.31,157.86a3.69,3.69,0,0,0,3.27,5.41Z"/><polygon class="cls-2" points="88.42 167.92 88.42 74.11 75.74 74.11 75.74 180.6 210.97 180.6 210.97 167.92 88.42 167.92"/></g></g></svg>