<svg xmlns="http://www.w3.org/2000/svg" xmlns:xlink="http://www.w3.org/1999/xlink" viewBox="0 0 1690.49 1079.87"><defs><style>.cls-1{fill:url(#radial-gradient);}.cls-2{fill:#039aee;}.cls-3{fill:none;stroke:#039aee;stroke-miterlimit:10;stroke-width:7px;}.cls-4{fill:#0a6ec9;}.cls-5{fill:#fff;}</style><radialGradient id="radial-gradient" cx="819.49" cy="520.97" r="417.82" gradientUnits="userSpaceOnUse"><stop offset="0" stop-color="#fff"/><stop offset="0.41" stop-color="#fdfeff"/><stop offset="0.65" stop-color="#f4fbfe"/><stop offset="0.84" stop-color="#e6f6fd"/><stop offset="1" stop-color="#d4f0fc"/></radialGradient></defs><g id="Layer_2" data-name="Layer 2"><g id="Layer_1-2" data-name="Layer 1"><path class="cls-1" d="M1348,785.22H291c0-291.89,236.62-528.51,528.5-528.51S1348,493.33,1348,785.22Z"/><circle class="cls-2" cx="819.49" cy="785.22" r="294.64"/><circle class="cls-2" cx="819.49" cy="785.22" r="104.91"/><line class="cls-3" y1="785.22" x2="1638.99" y2="785.22"/><rect class="cls-4" x="1256.09" y="465.09" width="11.44" height="320.13"/><circle class="cls-4" cx="1261.81" cy="465.09" r="25.49"/><path class="cls-4" d="M1254.22,465.09l5.58-191.34a2,2,0,0,1,4,0l5.59,191.34Z"/><path class="cls-4" d="M1265.61,471.67l-168.5,90.83a2,2,0,0,1-2-3.48L1258,458.51Z"/><path class="cls-4" d="M1265.61,458.51,1428.52,559a2,2,0,0,1-2,3.48L1258,471.67Z"/><polygon class="cls-2" points="1538.52 785.22 1507.08 785.22 1517.08 193.29 1528.52 193.29 1538.52 785.22"/><circle class="cls-2" cx="1522.8" cy="193.29" r="25.49"/><path class="cls-2" d="M1515.2,193.29,1520.79,2a2,2,0,0,1,4,0l5.58,191.34Z"/><path class="cls-2" d="M1526.6,199.87l-168.5,90.84a2,2,0,0,1-2-3.49L1519,186.72Z"/><path class="cls-2" d="M1526.6,186.72l162.91,100.5a2,2,0,0,1-2,3.49L1519,199.87Z"/><polygon class="cls-5" points="813.88 628 752.03 821.39 816.12 821.39 768.19 970.19 906.96 765.65 835.07 765.65 879.65 628 813.88 628"/></g></g></svg>