<svg xmlns="http://www.w3.org/2000/svg" xmlns:xlink="http://www.w3.org/1999/xlink" viewBox="0 0 747 295.81"><defs><style>.cls-1{fill:#1f2126;}.cls-2{fill:url(#radial-gradient);}.cls-3{fill:#039aee;}.cls-4{fill:#0a6ec9;}</style><radialGradient id="radial-gradient" cx="147.91" cy="147.91" r="147.91" gradientUnits="userSpaceOnUse"><stop offset="0" stop-color="#fff"/><stop offset="0.41" stop-color="#fdfeff"/><stop offset="0.65" stop-color="#f4fbfe"/><stop offset="0.84" stop-color="#e6f6fd"/><stop offset="1" stop-color="#d4f0fc"/></radialGradient></defs><g id="Layer_2" data-name="Layer 2"><g id="Layer_1-2" data-name="Layer 1"><path class="cls-1" d="M365.14,143.55a34.31,34.31,0,0,1-11.6-6.27,65.13,65.13,0,0,1-9.69-10.68l13.53-11.25q5.83,8.12,11.32,11.46t13.6,3.35q11.25,0,16.38-3.28t5.13-10.53a8.1,8.1,0,0,0-2.42-6.06Q399,108,393.06,106a161.59,161.59,0,0,0-17.59-4.41q-13.68-2.85-20.29-10.19t-6.63-19.58A26.58,26.58,0,0,1,353,56.39a28.87,28.87,0,0,1,12.75-10.11A48.25,48.25,0,0,1,385,42.72q14.24,0,22.64,4.2a34.44,34.44,0,0,1,13.67,12.32L408.08,70.06a99.18,99.18,0,0,0-7.33-6.76,21.77,21.77,0,0,0-6.63-3.63A27.93,27.93,0,0,0,385,58.39q-8.11,0-12.25,3.56T368.63,72.2a9.76,9.76,0,0,0,5.27,9.18,51.26,51.26,0,0,0,13.53,4.78,139.48,139.48,0,0,1,19.51,5.26,27.84,27.84,0,0,1,12.11,8.69q4.83,6,4.84,16.38,0,14.81-10.33,22.07t-31.26,7.26A55.77,55.77,0,0,1,365.14,143.55Z"/><path class="cls-1" d="M494.73,80a27.39,27.39,0,0,1,9.9,12,40.64,40.64,0,0,1,3.28,16.45v4.56a40.64,40.64,0,0,1-3.28,16.45,27.39,27.39,0,0,1-9.9,12q-6.62,4.49-16,4.48-8.11,0-12.74-2.2a21.58,21.58,0,0,1-7.91-6.48V175.3H439.55V97.83a11.81,11.81,0,0,0-1.49-6.26,20.65,20.65,0,0,0-5.35-5.27L445.1,75.47a31.2,31.2,0,0,1,7.48,5.13A16.24,16.24,0,0,1,456.64,87q7.26-11.54,22.07-11.54A27.87,27.87,0,0,1,494.73,80Zm-5.34,28.41a21,21,0,0,0-4.2-13.17q-4.2-5.49-11.89-5.48-12,0-15.24,11.67v18.52q3.29,11.67,15.24,11.67,7.83,0,12-5.41a21.12,21.12,0,0,0,4.13-13.24Z"/><path class="cls-1" d="M579.32,129.73a20.75,20.75,0,0,0,5.34,5.27l-12.39,10.82q-8.12-4.12-11.11-10.39a25,25,0,0,1-8.54,7.4,27.31,27.31,0,0,1-13.39,3q-10.11,0-16.09-5.19t-6-14.74q0-8.55,4.49-13.18A23.39,23.39,0,0,1,532,106.38a71,71,0,0,1,13-2.42l6.84-.72a14.72,14.72,0,0,0,5.76-1.42,3.83,3.83,0,0,0,1.78-3.28,12.34,12.34,0,0,0-2.77-7.26q-2.5-3-9.47-3a17.63,17.63,0,0,0-8,1.71,25.3,25.3,0,0,0-7,5.55l-12.67-8.83a27.53,27.53,0,0,1,10.4-8.33q6.25-2.91,17.23-2.92,30.75,0,30.76,24.93v23.07A11.81,11.81,0,0,0,579.32,129.73Zm-24-.78a11.6,11.6,0,0,0,4-8.9v-6a42.13,42.13,0,0,1-8.68,1.56l-4.28.43a20.75,20.75,0,0,0-8.11,2.21c-2.19,1.19-3.28,3.39-3.28,6.62a7,7,0,0,0,2.42,5.7,10,10,0,0,0,6.55,2Q551.34,132.58,555.33,129Z"/><path class="cls-1" d="M645,79.46l-4.55,15.38a23,23,0,0,0-5.7-2.85,22.55,22.55,0,0,0-6.69-.85q-9.4,0-13.53,12.53v40.45H596.05V97.83a11.72,11.72,0,0,0-1.49-6.26,20.75,20.75,0,0,0-5.34-5.27l12.39-10.83a32.2,32.2,0,0,1,7.69,5.42,16.85,16.85,0,0,1,4.13,6.83,24.29,24.29,0,0,1,7.55-8.9,19.35,19.35,0,0,1,11.53-3.35A19.84,19.84,0,0,1,645,79.46Z"/><path class="cls-1" d="M718.1,144.12H699.16l-6.27-22.51a11.77,11.77,0,0,0-3.42-5.91q-2.28-1.92-7.69-2.49l-9.25,9.4v21.51H654V59.67a11.76,11.76,0,0,0-1.49-6.27,20.91,20.91,0,0,0-5.34-5.27l12.39-10.82q7.26,3.7,10.11,8.47t2.85,13.32v41l22.21-22.93h22.5L694.6,100.11a18.42,18.42,0,0,1,10.61,6.69q3.76,5,6.62,14.81Z"/><path class="cls-1" d="M378.79,256a36.8,36.8,0,0,1-18.31-4.43,31.77,31.77,0,0,1-12.42-12.45,37.1,37.1,0,0,1-4.5-18.36,39.16,39.16,0,0,1,4.3-18.64,32.49,32.49,0,0,1,12.05-12.82,33.72,33.72,0,0,1,17.71-4.68,30.62,30.62,0,0,1,16.21,4.23,28.84,28.84,0,0,1,10.85,11.66,35,35,0,0,1,3.57,17.12l-.12,4.59-54.33.1q.68,11.15,7.64,17.7T380,246.57a30.06,30.06,0,0,0,9.77-1.66,34.54,34.54,0,0,0,10.55-6.51l5.13,7.21A36.9,36.9,0,0,1,393.74,253,38.43,38.43,0,0,1,378.79,256Zm-1.28-61.94q-9.45,0-15.61,5.08t-7.72,14.78l44-.08v-.78a20.73,20.73,0,0,0-2.77-9.12,19.63,19.63,0,0,0-7-7.14A20.55,20.55,0,0,0,377.51,194.08Z"/><path class="cls-1" d="M419.07,254.64,419,186l9.84,0,.28,11.68a25.36,25.36,0,0,1,9.76-9.33,27.6,27.6,0,0,1,14-3.83q11.42,0,17.26,7T476,212.81l.07,41.73-10.1,0-.07-41.07q0-20.09-16.18-19.66A21.53,21.53,0,0,0,439,196.47a20.05,20.05,0,0,0-7.33,7,17.6,17.6,0,0,0-2.68,9.45l.07,41.73Z"/><path class="cls-1" d="M521.82,255.78a36.84,36.84,0,0,1-18.32-4.43,31.9,31.9,0,0,1-12.42-12.45,37.1,37.1,0,0,1-4.49-18.36,39,39,0,0,1,4.3-18.64,32.42,32.42,0,0,1,12.05-12.82,33.72,33.72,0,0,1,17.71-4.68,30.56,30.56,0,0,1,16.21,4.23,28.81,28.81,0,0,1,10.84,11.66,34.88,34.88,0,0,1,3.58,17.12l-.13,4.59-54.32.1q.68,11.15,7.64,17.7T523,246.33a30.12,30.12,0,0,0,9.78-1.66,34.66,34.66,0,0,0,10.55-6.51l5.13,7.21a37,37,0,0,1-11.67,7.43A38.43,38.43,0,0,1,521.82,255.78Zm-1.29-61.94q-9.45,0-15.6,5.08t-7.72,14.78l44-.08v-.78a20.6,20.6,0,0,0-2.77-9.12,19.55,19.55,0,0,0-7-7.14A20.5,20.5,0,0,0,520.53,193.84Z"/><path class="cls-1" d="M562.1,254.4,562,185.77l10,0,.16,13.25a26.47,26.47,0,0,1,8.38-10.44,20.76,20.76,0,0,1,12.85-4.29,21.56,21.56,0,0,1,4.2.39c1.31.26,2.41.52,3.28.78l-2.74,11.16a17.22,17.22,0,0,0-6.82-1.43A18.22,18.22,0,0,0,581,198a18.64,18.64,0,0,0-6.62,7.42,22.3,22.3,0,0,0-2.27,10.11l.06,38.84Z"/><path class="cls-1" d="M635.5,284.45a43.3,43.3,0,0,1-14.37-2.33,40,40,0,0,1-11.36-5.89l4.05-8.41a34.26,34.26,0,0,0,9.65,5.24,35.54,35.54,0,0,0,12.28,2.08q11.14,0,17.44-6.27t6.26-18.44v-9.06a26.3,26.3,0,0,1-10,10.06,28.73,28.73,0,0,1-15,4.16,32,32,0,0,1-29-17.21A38.45,38.45,0,0,1,601,220a37.66,37.66,0,0,1,4.36-18.31,33.58,33.58,0,0,1,11.92-12.75,31.52,31.52,0,0,1,16.86-4.69,30.78,30.78,0,0,1,25,13l.24-11.55h10l.11,64.43q0,16.39-9.28,25.4T635.5,284.45Zm.06-38.44a23.22,23.22,0,0,0,12.4-3.37,23.77,23.77,0,0,0,8.58-9.27,30.61,30.61,0,0,0,0-27,24.13,24.13,0,0,0-8.61-9.3,22.82,22.82,0,0,0-12.4-3.39A23.13,23.13,0,0,0,623,197.08a23.61,23.61,0,0,0-8.51,9.33,31.06,31.06,0,0,0,0,27,23,23,0,0,0,8.55,9.3A23.45,23.45,0,0,0,635.56,246Z"/><path class="cls-1" d="M696.91,284.35,708.54,256l-32-70.41,11.29,0L711.39,238c.35.79.71,1.64,1.06,2.56s.7,1.86,1,2.82c.26-.7.55-1.42.85-2.17s.59-1.51.85-2.29l20.38-53.44,11.42,0-27.57,68.67-11.76,30.2Z"/><circle class="cls-2" cx="147.91" cy="147.91" r="147.91"/><path class="cls-3" d="M238.5,100.12,139.06,246.66a30.63,30.63,0,0,1-37,11.11C59.49,240.23,28.91,199,26.88,150.92A121.18,121.18,0,0,1,113.27,29.56,13.06,13.06,0,0,1,129.47,46l-25.79,80.62h37.59a7.68,7.68,0,0,1,7.3,10L115.8,238.39,220,84.82H176.59a7.69,7.69,0,0,1-7.32-10l10.32-31.84A13.05,13.05,0,0,1,197.24,35,121.26,121.26,0,0,1,235.6,62.1,30.43,30.43,0,0,1,238.5,100.12Z"/><path class="cls-4" d="M269,145.68c.29,65.6-52.78,119.07-117,121.13a9.35,9.35,0,0,1-8-14.6L245.46,102.74a9.34,9.34,0,0,1,16.5,2A121,121,0,0,1,269,145.68Z"/></g></g></svg>