<svg xmlns="http://www.w3.org/2000/svg" xmlns:xlink="http://www.w3.org/1999/xlink" viewBox="0 0 2072.71 2072.71"><defs><style>.cls-1,.cls-2{fill:#039aee;}.cls-1{opacity:0;}.cls-3{fill:url(#radial-gradient);}.cls-4{fill:url(#radial-gradient-2);}.cls-5{fill:url(#radial-gradient-3);}.cls-6{fill:url(#radial-gradient-4);}</style><radialGradient id="radial-gradient" cx="1903.56" cy="1330.3" r="96.6" gradientUnits="userSpaceOnUse"><stop offset="0" stop-color="#fff"/><stop offset="0.41" stop-color="#fdfeff"/><stop offset="0.65" stop-color="#f4fbfe"/><stop offset="0.84" stop-color="#e6f6fd"/><stop offset="1" stop-color="#d4f0fc"/></radialGradient><radialGradient id="radial-gradient-2" cx="996.99" cy="1086.48" r="639.29" gradientUnits="userSpaceOnUse"><stop offset="0" stop-color="#3751c9"/><stop offset="0.11" stop-color="#275bc9"/><stop offset="0.27" stop-color="#0a6ec9"/><stop offset="1" stop-color="#dc9cce"/></radialGradient><radialGradient id="radial-gradient-3" cx="979.01" cy="1222.7" r="348.28" xlink:href="#radial-gradient"/><radialGradient id="radial-gradient-4" cx="1173.53" cy="1438.47" r="513.69" gradientUnits="userSpaceOnUse"><stop offset="0" stop-color="#d4f0fc"/><stop offset="0.16" stop-color="#e6f6fd"/><stop offset="0.35" stop-color="#f4fbfe"/><stop offset="0.59" stop-color="#fdfeff"/><stop offset="1" stop-color="#fff"/></radialGradient></defs><g id="Layer_2" data-name="Layer 2"><g id="Layer_1-2" data-name="Layer 1"><rect class="cls-1" width="2072.71" height="2072.71"/><path class="cls-2" d="M987.72,1891.13a598.87,598.87,0,1,1,233.81-47.21A597,597,0,0,1,987.72,1891.13Zm0-1194.39a591.76,591.76,0,1,0,231.09,46.65A590,590,0,0,0,987.72,696.74Z"/><path class="cls-2" d="M987.72,1891.13a598.87,598.87,0,1,1,233.81-47.21A597,597,0,0,1,987.72,1891.13Zm0-1194.39a591.76,591.76,0,1,0,231.09,46.65A590,590,0,0,0,987.72,696.74Z"/><circle class="cls-3" cx="1891.72" cy="1290.43" r="120.89"/><path class="cls-2" d="M1891.72,1414.82a124.39,124.39,0,1,1,124.39-124.39A124.53,124.53,0,0,1,1891.72,1414.82Zm0-241.78a117.39,117.39,0,1,0,117.39,117.39A117.52,117.52,0,0,0,1891.72,1173Z"/><circle class="cls-2" cx="1891.72" cy="1290.43" r="45.81"/><path class="cls-2" d="M987.72,559a249.78,249.78,0,0,1-176.63-426.4,249.78,249.78,0,1,1,353.25,353.24A248.13,248.13,0,0,1,987.72,559Zm0-492.56A242.78,242.78,0,0,0,816,480.87a242.78,242.78,0,1,0,343.35-343.34A241.18,241.18,0,0,0,987.72,66.42Z"/><circle class="cls-2" cx="987.72" cy="309.2" r="93.32"/><circle class="cls-4" cx="987.72" cy="1290.43" r="393.97"/><path class="cls-5" d="M1229,1163.14,964.16,1553.49a81.6,81.6,0,0,1-98.65,29.59c-113.3-46.74-194.76-156.44-200.18-284.61C658.92,1146.26,758,1016.14,895.46,975.2c26.81-8,51.68,17.21,43.15,43.88l-68.7,214.74H970.05a20.44,20.44,0,0,1,19.43,26.71l-87.27,270.92,277.57-409H1064.11a20.49,20.49,0,0,1-19.48-26.76l27.49-84.81a34.73,34.73,0,0,1,47-21.16,323.12,323.12,0,0,1,102.18,72.19C1247.5,1089.37,1250.35,1131.71,1229,1163.14Z"/><path class="cls-6" d="M1310.39,1284.49c.75,174.75-140.61,317.16-311.61,322.65-20.29.65-32.72-22.08-21.33-38.87l270.13-398.14c11.36-16.75,37.1-13.71,43.94,5.34A322.19,322.19,0,0,1,1310.39,1284.49Z"/><rect class="cls-2" x="984.22" y="555.48" width="7" height="137.75"/><rect class="cls-2" x="1584.84" y="1286.93" width="189.05" height="7"/></g></g></svg>